<svg width="15" height="16" viewBox="0 0 15 16" fill="none" xmlns="http://www.w3.org/2000/svg">
<mask id="path-1-inside-1_1_168" fill="white">
<path fill-rule="evenodd" clip-rule="evenodd" d="M13.0868 6.97194C13.7492 6.23186 14.152 5.25456 14.152 4.18319C14.152 1.87288 12.2791 0 9.96879 0C7.65848 0 5.7856 1.87288 5.7856 4.18319C5.7856 5.25456 6.18836 6.23186 6.85073 6.97194H5.88676C5.18852 6.97194 4.76508 7.74248 5.13941 8.3319L9.22126 14.7591C9.56903 15.3067 10.3682 15.3067 10.716 14.7591L14.7978 8.3319C15.1721 7.74248 14.7487 6.97194 14.0505 6.97194H13.0868Z"/>
</mask>
<path fill-rule="evenodd" clip-rule="evenodd" d="M13.0868 6.97194C13.7492 6.23186 14.152 5.25456 14.152 4.18319C14.152 1.87288 12.2791 0 9.96879 0C7.65848 0 5.7856 1.87288 5.7856 4.18319C5.7856 5.25456 6.18836 6.23186 6.85073 6.97194H5.88676C5.18852 6.97194 4.76508 7.74248 5.13941 8.3319L9.22126 14.7591C9.56903 15.3067 10.3682 15.3067 10.716 14.7591L14.7978 8.3319C15.1721 7.74248 14.7487 6.97194 14.0505 6.97194H13.0868Z" fill="white"/>
<path d="M13.0868 6.97194L12.1633 6.14534L10.3141 8.2114H13.0868V6.97194ZM6.85073 6.97194V8.2114H9.62344L7.77431 6.14534L6.85073 6.97194ZM5.13941 8.3319L4.09312 8.99639H4.09312L5.13941 8.3319ZM9.22126 14.7591L8.17496 15.4236V15.4236L9.22126 14.7591ZM10.716 14.7591L9.66967 14.0947H9.66967L10.716 14.7591ZM14.7978 8.3319L15.8441 8.99639H15.8441L14.7978 8.3319ZM12.9125 4.18319C12.9125 4.93791 12.6301 5.62372 12.1633 6.14534L14.0104 7.79854C14.8683 6.84 15.3914 5.57121 15.3914 4.18319H12.9125ZM9.96879 1.23946C11.5946 1.23946 12.9125 2.55741 12.9125 4.18319H15.3914C15.3914 1.18834 12.9636 -1.23946 9.96879 -1.23946V1.23946ZM7.02506 4.18319C7.02506 2.55741 8.34301 1.23946 9.96879 1.23946V-1.23946C6.97394 -1.23946 4.54614 1.18834 4.54614 4.18319H7.02506ZM7.77431 6.14534C7.30746 5.62372 7.02506 4.93791 7.02506 4.18319H4.54614C4.54614 5.57121 5.06926 6.84 5.92715 7.79854L7.77431 6.14534ZM5.88676 8.2114H6.85073V5.73248H5.88676V8.2114ZM6.18571 7.66742C6.33544 7.90318 6.16606 8.2114 5.88676 8.2114V5.73248C4.21098 5.73248 3.19472 7.58178 4.09312 8.99639L6.18571 7.66742ZM10.2675 14.0947L6.18571 7.66742L4.09312 8.99639L8.17496 15.4236L10.2675 14.0947ZM9.66967 14.0947C9.80878 13.8756 10.1284 13.8756 10.2675 14.0947L8.17496 15.4236C9.00962 16.7379 10.9276 16.7379 11.7623 15.4236L9.66967 14.0947ZM13.7515 7.66742L9.66967 14.0947L11.7623 15.4236L15.8441 8.99639L13.7515 7.66742ZM14.0505 8.2114C13.7712 8.2114 13.6018 7.90319 13.7515 7.66742L15.8441 8.99639C16.7425 7.58177 15.7262 5.73248 14.0505 5.73248V8.2114ZM13.0868 8.2114H14.0505V5.73248H13.0868V8.2114Z" fill="#1A3136" mask="url(#path-1-inside-1_1_168)"/>
<path fill-rule="evenodd" clip-rule="evenodd" d="M8.0866 6.97194C8.74897 6.23186 9.15173 5.25456 9.15173 4.18319C9.15173 1.87288 7.27885 0 4.96854 0C2.65823 0 0.785355 1.87288 0.785355 4.18319C0.785355 5.25456 1.18812 6.23186 1.85049 6.97194H0.88652C0.188277 6.97194 -0.235164 7.74248 0.139169 8.3319L4.22101 14.7591C4.56878 15.3067 5.36795 15.3067 5.71572 14.7591L9.79756 8.3319C10.1719 7.74248 9.74845 6.97194 9.05021 6.97194H8.0866Z" fill="#1A3136"/>
</svg>
