<svg width="38" height="48" viewBox="0 0 38 48" fill="none" xmlns="http://www.w3.org/2000/svg">
<g clip-path="url(#clip0_37_8)">
<path d="M26 0H11V17H26V0Z" fill="url(#paint0_linear_37_8)"/>
<g filter="url(#filter0_d_37_8)">
<path d="M17.7833 12.3885C18.5747 12.1358 19.4253 12.1358 20.2167 12.3885L27.0392 14.5671C27.8397 14.8227 28.5394 15.3239 29.0389 15.9996L33.2165 21.6504C33.7254 22.3387 34 23.1722 34 24.0283V30.9717C34 31.8278 33.7254 32.6613 33.2165 33.3496L29.0389 39.0004C28.5394 39.6761 27.8397 40.1773 27.0392 40.4329L20.2167 42.6115C19.4253 42.8642 18.5747 42.8642 17.7833 42.6115L10.9608 40.4329C10.1603 40.1773 9.46064 39.6761 8.96109 39.0004L4.78354 33.3496C4.27464 32.6613 4 31.8278 4 30.9717V24.0283C4 23.1722 4.27464 22.3387 4.78354 21.6504L8.96109 15.9996C9.46064 15.3239 10.1603 14.8227 10.9608 14.5671L17.7833 12.3885Z" fill="#00C1EB"/>
</g>
</g>
<defs>
<filter id="filter0_d_37_8" x="0" y="9.19897" width="38" height="38.6021" filterUnits="userSpaceOnUse" color-interpolation-filters="sRGB">
<feFlood flood-opacity="0" result="BackgroundImageFix"/>
<feColorMatrix in="SourceAlpha" type="matrix" values="0 0 0 0 0 0 0 0 0 0 0 0 0 0 0 0 0 0 127 0" result="hardAlpha"/>
<feOffset dy="1"/>
<feGaussianBlur stdDeviation="2"/>
<feComposite in2="hardAlpha" operator="out"/>
<feColorMatrix type="matrix" values="0 0 0 0 0 0 0 0 0 0 0 0 0 0 0 0 0 0 0.12 0"/>
<feBlend mode="normal" in2="BackgroundImageFix" result="effect1_dropShadow_37_8"/>
<feBlend mode="normal" in="SourceGraphic" in2="effect1_dropShadow_37_8" result="shape"/>
</filter>
<linearGradient id="paint0_linear_37_8" x1="18.5" y1="0" x2="18.5" y2="17" gradientUnits="userSpaceOnUse">
<stop stop-color="#7BD7EC"/>
<stop offset="1" stop-color="#6CB7C8"/>
</linearGradient>
<clipPath id="clip0_37_8">
<rect width="38" height="48" fill="white"/>
</clipPath>
</defs>
</svg>
