<svg width="162" height="44" viewBox="0 0 162 44" fill="none" xmlns="http://www.w3.org/2000/svg">
<path d="M156 18H6C2.68629 18 0 20.6863 0 24C0 27.3137 2.68629 30 6 30H156C159.314 30 162 27.3137 162 24C162 20.6863 159.314 18 156 18Z" fill="#8B8B8B"/>
<path d="M156 18H6C2.68629 18 0 20.6863 0 24C0 27.3137 2.68629 30 6 30H156C159.314 30 162 27.3137 162 24C162 20.6863 159.314 18 156 18Z" fill="#63DE03"/>
<path d="M12 26C13.1046 26 14 25.1046 14 24C14 22.8954 13.1046 22 12 22C10.8954 22 10 22.8954 10 24C10 25.1046 10.8954 26 12 26Z" fill="white"/>
<path d="M20 26C21.1046 26 22 25.1046 22 24C22 22.8954 21.1046 22 20 22C18.8954 22 18 22.8954 18 24C18 25.1046 18.8954 26 20 26Z" fill="white"/>
<path d="M156 22H150C148.895 22 148 22.8954 148 24C148 25.1046 148.895 26 150 26H156C157.105 26 158 25.1046 158 24C158 22.8954 157.105 22 156 22Z" fill="white"/>
<path d="M82.2321 9.75C81.4623 11.0833 79.5378 11.0833 78.768 9.75L74.8709 3C74.1011 1.6667 75.0633 0 76.6029 0H84.3972C85.9368 0 86.899 1.6667 86.1292 3L82.2321 9.75Z" fill="#63DE03"/>
<path d="M98 24.25C98 33.915 90.165 41.75 80.5 41.75C70.835 41.75 63 33.915 63 24.25C63 14.585 70.835 6.75 80.5 6.75C90.165 6.75 98 14.585 98 24.25Z" fill="#63DE03"/>
<path fill-rule="evenodd" clip-rule="evenodd" d="M80.5 41.75C90.165 41.75 98 33.915 98 24.25C98 14.585 90.165 6.75 80.5 6.75C70.835 6.75 63 14.585 63 24.25C63 33.915 70.835 41.75 80.5 41.75ZM80.5 43.75C91.2696 43.75 100 35.02 100 24.25C100 13.4804 91.2696 4.75 80.5 4.75C69.7304 4.75 61 13.4804 61 24.25C61 35.02 69.7304 43.75 80.5 43.75Z" fill="white"/>
<path d="M94.0322 24.25C94.5845 24.25 95.0358 24.6983 94.9978 25.249C94.824 27.765 93.9962 30.199 92.5885 32.306C90.9953 34.69 88.7307 36.549 86.0811 37.646C83.4316 38.744 80.5161 39.031 77.7034 38.471C74.8907 37.912 72.307 36.531 70.2792 34.503C68.2513 32.475 66.8703 29.892 66.3108 27.079C65.7513 24.2661 66.0385 21.3506 67.136 18.7011C68.2334 16.0516 70.0919 13.787 72.4765 12.1937C74.5831 10.786 77.0168 9.95827 79.533 9.78447C80.0839 9.74637 80.5322 10.1977 80.5322 10.75V23.25C80.5322 23.8023 80.9799 24.25 81.5322 24.25H94.0322Z" fill="white"/>
</svg>
