<svg width="162" height="44" viewBox="0 0 162 44" fill="none" xmlns="http://www.w3.org/2000/svg">
<rect y="18" width="162" height="12" rx="6" fill="#8B8B8B"/>
<rect y="18" width="162" height="12" rx="6" fill="#63DE03"/>
<circle cx="12" cy="24" r="2" fill="white"/>
<circle cx="20" cy="24" r="2" fill="white"/>
<rect x="148" y="22" width="10" height="4" rx="2" fill="white"/>
<path d="M82.2321 10C81.4623 11.3333 79.5378 11.3333 78.768 10L74.8709 3.25C74.1011 1.91666 75.0633 0.249998 76.6029 0.249998L84.3972 0.249999C85.9368 0.249999 86.899 1.91667 86.1292 3.25L82.2321 10Z" fill="#63DE03"/>
<path d="M98 24.5C98 34.165 90.165 42 80.5 42C70.835 42 63 34.165 63 24.5C63 14.835 70.835 7 80.5 7C90.165 7 98 14.835 98 24.5Z" fill="#63DE03"/>
<path fill-rule="evenodd" clip-rule="evenodd" d="M80.5 42C90.165 42 98 34.165 98 24.5C98 14.835 90.165 7 80.5 7C70.835 7 63 14.835 63 24.5C63 34.165 70.835 42 80.5 42ZM80.5 44C91.2696 44 100 35.2696 100 24.5C100 13.7304 91.2696 5 80.5 5C69.7304 5 61 13.7304 61 24.5C61 35.2696 69.7304 44 80.5 44Z" fill="white"/>
<path d="M90.3995 14.6005C90.5948 14.4052 90.9121 14.4047 91.1005 14.6066C93.2692 16.9302 94.6177 19.9064 94.9302 23.0788C95.259 26.4172 94.4201 29.7665 92.5563 32.5558C90.6926 35.3451 87.9194 37.4018 84.7092 38.3756C81.499 39.3494 78.0504 39.18 74.9511 37.8963C71.8518 36.6125 69.2935 34.2938 67.7122 31.3353C66.1308 28.3767 65.6242 24.9614 66.2786 21.6712C66.9331 18.381 68.7081 15.4195 71.3013 13.2914C73.7654 11.2691 76.8234 10.1182 80 10.0086C80.276 9.99911 80.5 10.2239 80.5 10.5L80.5 23.2929C80.5 23.7384 81.0386 23.9614 81.3536 23.6465L90.3995 14.6005Z" fill="white"/>
</svg>
