<svg width="162" height="44" viewBox="0 0 162 44" fill="none" xmlns="http://www.w3.org/2000/svg">
<path d="M156 18H6C2.68629 18 0 20.6863 0 24C0 27.3137 2.68629 30 6 30H156C159.314 30 162 27.3137 162 24C162 20.6863 159.314 18 156 18Z" fill="#8B8B8B"/>
<path d="M156 18H6C2.68629 18 0 20.6863 0 24C0 27.3137 2.68629 30 6 30H156C159.314 30 162 27.3137 162 24C162 20.6863 159.314 18 156 18Z" fill="#FF9D43"/>
<path d="M12 26C13.1046 26 14 25.1046 14 24C14 22.8954 13.1046 22 12 22C10.8954 22 10 22.8954 10 24C10 25.1046 10.8954 26 12 26Z" fill="white"/>
<path d="M20 26C21.1046 26 22 25.1046 22 24C22 22.8954 21.1046 22 20 22C18.8954 22 18 22.8954 18 24C18 25.1046 18.8954 26 20 26Z" fill="white"/>
<path d="M156 22H150C148.895 22 148 22.8954 148 24C148 25.1046 148.895 26 150 26H156C157.105 26 158 25.1046 158 24C158 22.8954 157.105 22 156 22Z" fill="white"/>
<path d="M82.2321 9.75C81.4623 11.083 79.5378 11.083 78.768 9.75L74.8709 3C74.1011 1.667 75.0633 0 76.6029 0H84.3972C85.9368 0 86.899 1.667 86.1292 3L82.2321 9.75Z" fill="#FF9D43"/>
<path d="M98 24.25C98 33.915 90.165 41.75 80.5 41.75C70.835 41.75 63 33.915 63 24.25C63 14.585 70.835 6.75 80.5 6.75C90.165 6.75 98 14.585 98 24.25Z" fill="#FF9D43"/>
<path fill-rule="evenodd" clip-rule="evenodd" d="M80.5 41.75C90.165 41.75 98 33.915 98 24.25C98 14.585 90.165 6.75 80.5 6.75C70.835 6.75 63 14.585 63 24.25C63 33.915 70.835 41.75 80.5 41.75ZM80.5 43.75C91.2696 43.75 100 35.02 100 24.25C100 13.48 91.2696 4.75 80.5 4.75C69.7304 4.75 61 13.48 61 24.25C61 35.02 69.7304 43.75 80.5 43.75Z" fill="white"/>
<path d="M70.9541 33.796C70.5635 34.186 69.9274 34.189 69.5648 33.772C67.9084 31.87 66.7729 29.564 66.2786 27.079C65.7191 24.266 66.0063 21.351 67.1038 18.701C68.2012 16.052 70.0597 13.787 72.4442 12.194C74.5509 10.786 76.9846 9.95797 79.5008 9.78397C80.0517 9.74597 80.5 10.198 80.5 10.75V23.836C80.5 24.101 80.3946 24.355 80.2071 24.543L70.9541 33.796Z" fill="white"/>
</svg>
