<svg width="42" height="42" viewBox="0 0 42 42" fill="none" xmlns="http://www.w3.org/2000/svg">
<path d="M32 0H10C4.47715 0 0 4.47715 0 10V32C0 37.5228 4.47715 42 10 42H32C37.5228 42 42 37.5228 42 32V10C42 4.47715 37.5228 0 32 0Z" fill="white"/>
<path d="M31 21C31 26.5228 26.5228 31 21 31C15.4772 31 11 26.5228 11 21C11 15.4772 15.4772 11 21 11C26.5228 11 31 15.4772 31 21Z" fill="#51CCE7"/>
<path fill-rule="evenodd" clip-rule="evenodd" d="M21.0009 20.832C21.6562 20.832 22.1874 21.4087 22.1874 22.1201V25.9845C22.1874 26.696 21.6562 27.2727 21.0009 27.2727C20.3457 27.2727 19.8145 26.696 19.8145 25.9845V22.1201C19.8145 21.4087 20.3457 20.832 21.0009 20.832Z" fill="white"/>
<path d="M19.4746 17.2715C19.4746 16.429 20.1576 15.7461 21.0001 15.7461C21.8425 15.7461 22.5255 16.429 22.5255 17.2715C22.5255 18.114 21.8425 18.7969 21.0001 18.7969C20.1576 18.7969 19.4746 18.114 19.4746 17.2715Z" fill="white"/>
</svg>
