<svg width="15" height="14" viewBox="0 0 15 14" fill="none" xmlns="http://www.w3.org/2000/svg">
<path d="M6.11862 1.04403C6.55342 -0.348008 8.44658 -0.348011 8.88138 1.04403L9.53812 3.14663C9.73256 3.76917 10.2902 4.19066 10.9195 4.19066H13.0448C14.4518 4.19066 15.0368 6.06363 13.8985 6.92396L12.1791 8.22344C11.67 8.60819 11.457 9.29017 11.6515 9.91271L12.3082 12.0153C12.743 13.4074 11.2114 14.5649 10.0731 13.7046L8.35374 12.4051C7.84467 12.0204 7.15533 12.0204 6.64626 12.4051L4.92689 13.7046C3.78858 14.5649 2.25698 13.4074 2.69178 12.0153L3.34852 9.91271C3.54297 9.29017 3.32995 8.60819 2.82088 8.22344L1.10151 6.92396C-0.0368055 6.06363 0.548214 4.19066 1.95525 4.19066H4.08051C4.70975 4.19066 5.26744 3.76917 5.46188 3.14663L6.11862 1.04403Z" fill="#FFCE00"/>
</svg>
