<svg width="42" height="42" viewBox="0 0 42 42" fill="none" xmlns="http://www.w3.org/2000/svg">
<path d="M32 0H10C4.47715 0 0 4.47715 0 10V32C0 37.5228 4.47715 42 10 42H32C37.5228 42 42 37.5228 42 32V10C42 4.47715 37.5228 0 32 0Z" fill="#E96C8A"/>
<path d="M15.9993 29.4607L14.0762 13.6914H27.9224L25.2301 29.8453L15.9993 29.4607Z" fill="white"/>
<path fill-rule="evenodd" clip-rule="evenodd" d="M13.3328 14.525C13.2194 13.2263 14.243 12.1094 15.5466 12.1094H26.4099C27.7459 12.1094 28.7798 13.2796 28.6152 14.6054L26.8221 29.0498C26.684 30.1627 25.7383 30.9983 24.6168 30.9983H16.8084C15.6561 30.9983 14.6949 30.1174 14.5946 28.9694L13.3328 14.525ZM26.4099 14.3316H15.5466L16.8084 28.7761H24.6168L26.4099 14.3316ZM18.7786 17.6649C19.3923 17.6649 19.8897 18.1624 19.8897 18.7761V24.3316C19.8897 24.9453 19.3923 25.4427 18.7786 25.4427C18.165 25.4427 17.6675 24.9453 17.6675 24.3316V18.7761C17.6675 18.1624 18.165 17.6649 18.7786 17.6649ZM23.2231 17.6649C23.8367 17.6649 24.3342 18.1624 24.3342 18.7761V24.3316C24.3342 24.9453 23.8367 25.4427 23.2231 25.4427C22.6094 25.4427 22.112 24.9453 22.112 24.3316V18.7761C22.112 18.1624 22.6094 17.6649 23.2231 17.6649Z" fill="white"/>
<path d="M11 13.2205C11 12.6068 11.4975 12.1094 12.1111 12.1094H29.8889C30.5025 12.1094 31 12.6068 31 13.2205C31 13.8341 30.5025 14.3316 29.8889 14.3316H12.1111C11.4975 14.3316 11 13.8341 11 13.2205Z" fill="white"/>
<path d="M17.666 12.1111C17.666 11.4975 18.1634 11 18.7771 11H23.2215C23.8352 11 24.3327 11.4975 24.3327 12.1111C24.3327 12.7248 23.8352 13.2222 23.2215 13.2222H18.7771C18.1634 13.2222 17.666 12.7248 17.666 12.1111Z" fill="white"/>
<path d="M20.2315 19.0757C20.2315 18.4385 19.7149 17.9219 19.0777 17.9219C18.4404 17.9219 17.9238 18.4385 17.9238 19.0757V24.4603C17.9238 25.0976 18.4404 25.6142 19.0777 25.6142C19.7149 25.6142 20.2315 25.0976 20.2315 24.4603V19.0757Z" fill="#E96C8A"/>
<path d="M24.0772 19.0757C24.0772 18.4385 23.5606 17.9219 22.9234 17.9219C22.2861 17.9219 21.7695 18.4385 21.7695 19.0757V24.4603C21.7695 25.0976 22.2861 25.6142 22.9234 25.6142C23.5606 25.6142 24.0772 25.0976 24.0772 24.4603V19.0757Z" fill="#E96C8A"/>
</svg>
